<svg width="556.6050048828125px" height="122.021240234375px" xmlns="http://www.w3.org/2000/svg" viewBox="-28.30250244140626 13.9893798828125 556.6050048828125 122.021240234375" style="background: rgba(0, 0, 0, 0);" preserveAspectRatio="xMidYMid"><defs><linearGradient id="editing-sticker-gradient" x1="0.5" y1="0.2" x2="0.5" y2="0.8"><stop offset="0" stop-color="#88a052"></stop><stop offset="1" stop-color="#454c5e"></stop></linearGradient><filter id="editing-sticker" x="-100%" y="-100%" width="300%" height="300%"><feMorphology operator="erode" radius="1" in="SourceAlpha" result="alpha-erode"></feMorphology><feConvolveMatrix order="3,3" divisor="1" kernelMatrix="0 1 0 1 1 1 0 1 0" in="alpha-erode" result="alpha-round"></feConvolveMatrix><feMorphology operator="dilate" radius="3.5" in="alpha-round" result="dilate-shadow"></feMorphology><feGaussianBlur in="dilate-shadow" stdDeviation="1.5" result="shadow"></feGaussianBlur><feFlood flood-color="#fff" result="flood-sticker"></feFlood><feComposite operator="in" in="flood-sticker" in2="alpha-round" result="comp-sticker"></feComposite><feMorphology operator="dilate" radius="3" in="comp-sticker" result="morph-sticker"></feMorphology><feConvolveMatrix order="3,3" divisor="1" kernelMatrix="0 1 0 1 1 1 0 1 0" in="morph-sticker" result="sticker"></feConvolveMatrix><feMerge><feMergeNode in="shadow"></feMergeNode><feMergeNode in="sticker"></feMergeNode><feMergeNode in="SourceGraphic"></feMergeNode></feMerge></filter></defs><g filter="url(#editing-sticker)"><g transform="translate(53.069993913173676, 104.78218841552734)"><path d="M27.84-9.86L27.84-9.86L27.84-9.86Q29.06-8.32 29.06-5.34L29.06-5.34L29.06-5.34Q29.06-2.37 26.78-0.54L26.78-0.54L26.78-0.54Q24.51 1.28 20.54 1.28L20.54 1.28L20.54 1.28Q18.24 1.28 14.66 0.77L14.66 0.77L14.66 0.77Q7.62-0.32 5.60-0.32L5.60-0.32L5.60-0.32Q3.58-0.32 2.75-0.22L2.75-0.22L2.75-0.22Q1.92-0.13 0.58 0L0.58 0L8.32-42.24L22.34-42.24L15.94-7.04L15.94-7.04Q16.77-6.91 17.54-6.91L17.54-6.91L19.14-6.91L19.14-6.91Q24.51-6.91 27.84-9.86ZM48.70-3.52L48.70-3.52L48.70-3.52Q46.72 1.28 40.38 1.28L40.38 1.28L40.38 1.28Q37.12 1.28 35.07-0.96L35.07-0.96L35.07-0.96Q33.34-2.94 33.34-4.93L33.34-4.93L33.34-4.93Q33.34-10.11 35.71-20.22L35.71-20.22L38.08-32.64L51.07-33.92L47.17-13.70L47.17-13.70Q46.08-8.96 46.08-7.30L46.08-7.30L46.08-7.30Q46.08-3.65 48.70-3.52ZM39.23-41.54L39.23-41.54L39.23-41.54Q39.23-44.03 41.31-45.38L41.31-45.38L41.31-45.38Q43.39-46.72 46.40-46.72L46.40-46.72L46.40-46.72Q49.41-46.72 51.23-45.38L51.23-45.38L51.23-45.38Q53.06-44.03 53.06-41.54L53.06-41.54L53.06-41.54Q53.06-39.04 51.04-37.76L51.04-37.76L51.04-37.76Q49.02-36.48 46.02-36.48L46.02-36.48L46.02-36.48Q43.01-36.48 41.12-37.76L41.12-37.76L41.12-37.76Q39.23-39.04 39.23-41.54ZM53.31-3.07L53.31-3.07L61.25-44.80L74.24-46.08L72.26-36.29L72.26-36.29Q71.55-33.28 70.66-31.17L70.66-31.17L70.66-31.17Q72.06-32.96 75.14-33.66L75.14-33.66L75.14-33.66Q76.03-33.92 77.12-33.92L77.12-33.92L77.12-33.92Q83.07-33.92 86.34-30.30L86.34-30.30L86.34-30.30Q89.60-26.69 89.60-19.71L89.60-19.71L89.60-19.71Q89.60-10.62 84.42-4.93L84.42-4.93L84.42-4.93Q78.85 1.28 68.74 1.28L68.74 1.28L68.74 1.28Q61.76 1.28 56.51-1.02L56.51-1.02L56.51-1.02Q54.66-1.86 53.31-3.07ZM69.57-22.40L66.18-3.65L66.18-3.65Q67.52-2.50 69.18-2.50L69.18-2.50L69.18-2.50Q70.85-2.50 71.81-3.14L71.81-3.14L71.81-3.14Q72.77-3.78 73.47-5.06L73.47-5.06L73.47-5.06Q75.39-8.51 76.93-19.07L76.93-19.07L76.93-19.07Q77.38-22.08 77.38-25.09L77.38-25.09L77.38-25.09Q77.38-28.10 76.70-29.06L76.70-29.06L76.70-29.06Q76.03-30.02 74.75-30.02L74.75-30.02L74.75-30.02Q70.85-30.02 69.57-22.40L69.57-22.40ZM119.36-10.82L119.36-10.82L119.36-10.82Q120.96-9.73 120.96-7.33L120.96-7.33L120.96-7.33Q120.96-4.93 119.74-3.39L119.74-3.39L119.74-3.39Q118.53-1.86 116.54-0.83L116.54-0.83L116.54-0.83Q112.45 1.28 108.03 1.28L108.03 1.28L108.03 1.28Q103.62 1.28 101.02 0.32L101.02 0.32L101.02 0.32Q98.43-0.64 96.70-2.43L96.70-2.43L96.70-2.43Q93.31-5.82 93.31-12.03L93.31-12.03L93.31-12.03Q93.31-21.70 98.56-27.58L98.56-27.58L98.56-27.58Q104.19-33.92 113.98-33.92L113.98-33.92L113.98-33.92Q120.06-33.92 123.07-31.36L123.07-31.36L123.07-31.36Q125.31-29.44 125.31-26.30L125.31-26.30L125.31-26.30Q125.31-15.04 105.86-15.04L105.86-15.04L105.86-15.04Q105.60-13.38 105.60-11.97L105.60-11.97L105.60-11.97Q105.60-9.02 106.91-7.90L106.91-7.90L106.91-7.90Q108.22-6.78 110.66-6.78L110.66-6.78L110.66-6.78Q113.09-6.78 115.68-7.90L115.68-7.90L115.68-7.90Q118.27-9.02 119.36-10.82ZM106.30-17.79L106.30-17.79L106.30-17.79Q110.85-17.79 113.47-20.61L113.47-20.61L113.47-20.61Q116.10-23.30 116.10-27.58L116.10-27.58L116.10-27.58Q116.10-29.06 115.55-29.86L115.55-29.86L115.55-29.86Q115.01-30.66 113.92-30.66L113.92-30.66L113.92-30.66Q112.83-30.66 111.90-30.24L111.90-30.24L111.90-30.24Q110.98-29.82 110.02-28.42L110.02-28.42L110.02-28.42Q107.65-25.22 106.30-17.79ZM147.52-17.98L147.52-17.98L147.52-17.98Q149.82-22.08 149.82-26.24L149.82-26.24L149.82-26.24Q149.82-28.99 147.84-28.99L147.84-28.99L147.84-28.99Q146.30-28.99 144.70-26.37L144.70-26.37L144.70-26.37Q143.04-23.74 142.53-20.35L142.53-20.35L139.20 0L125.95 1.28L132.48-32.64L143.04-33.92L141.89-27.46L141.89-27.46Q145.02-33.92 152.06-33.92L152.06-33.92L152.06-33.92Q155.78-33.92 157.79-32L157.79-32L157.79-32Q159.81-30.08 159.81-26.14L159.81-26.14L159.81-26.14Q159.81-22.21 157.22-19.71L157.22-19.71L157.22-19.71Q154.62-17.22 150.21-17.22L150.21-17.22L150.21-17.22Q148.29-17.22 147.52-17.98ZM161.86-6.40L161.86-6.40L161.86-6.40Q161.86-8.13 162.75-12.48L162.75-12.48L166.14-29.76L162.37-29.76L162.62-31.68L162.62-31.68Q170.30-33.98 177.73-39.62L177.73-39.62L180.80-39.62L179.26-32.64L184.26-32.64L183.68-29.76L178.75-29.76L175.49-12.48L175.49-12.48Q174.66-8.51 174.66-7.17L174.66-7.17L174.66-7.17Q174.66-4.10 177.34-3.46L177.34-3.46L177.34-3.46Q176.70-1.28 174.40 0L174.40 0L174.40 0Q172.10 1.28 168.83 1.28L168.83 1.28L168.83 1.28Q165.57 1.28 163.71-0.77L163.71-0.77L163.71-0.77Q161.86-2.82 161.86-6.40ZM204.29-7.23L204.29-7.23L204.29-7.23Q200.96-3.78 194.88-3.78L194.88-3.78L194.88-3.78Q187.26-3.78 185.66-9.34L185.66-9.34L185.66-9.34Q185.15-11.01 185.15-12.86L185.15-12.86L185.15-12.86Q185.15-14.72 185.54-16.64L185.54-16.64L188.54-32.64L201.54-33.92L198.02-15.30L198.02-15.30Q197.89-14.46 197.70-13.57L197.70-13.57L197.70-13.57Q197.50-12.67 197.50-11.74L197.50-11.74L197.50-11.74Q197.50-10.82 197.82-10.21L197.82-10.21L197.82-10.21Q198.14-9.60 198.59-9.22L198.59-9.22L198.59-9.22Q199.36-8.70 200.74-8.70L200.74-8.70L200.74-8.70Q202.11-8.70 203.30-10.37L203.30-10.37L203.30-10.37Q204.48-12.03 205.06-14.91L205.06-14.91L208.58-32.64L221.18-33.92L216.38-8.77L216.38-8.77Q214.02 3.52 209.15 8.38L209.15 8.38L209.15 8.38Q206.66 10.88 203.42 11.87L203.42 11.87L203.42 11.87Q200.19 12.86 196.03 12.86L196.03 12.86L196.03 12.86Q189.31 12.86 185.47 10.75L185.47 10.75L185.47 10.75Q181.63 8.64 181.63 5.12L181.63 5.12L181.63 5.12Q181.63 2.50 183.62 0.99L183.62 0.99L183.62 0.99Q185.60-0.51 188.67-0.51L188.67-0.51L188.67-0.51Q191.36-0.51 193.41 0.64L193.41 0.64L193.41 0.64Q194.62 1.34 195.20 2.24L195.20 2.24L195.20 2.24Q193.73 3.52 193.73 5.63L193.73 5.63L193.73 5.63Q193.73 8.45 196.29 8.45L196.29 8.45L196.29 8.45Q200.51 8.45 202.94-1.28L202.94-1.28L202.94-1.28Q203.65-4.16 204.29-7.23ZM252.61-33.92L252.61-33.92L252.61-33.92Q247.42-33.92 243.65-35.65L243.65-35.65L241.60-25.28L253.95-25.28L253.95-25.28Q253.95-21.89 252.26-19.74L252.26-19.74L252.26-19.74Q250.56-17.60 247.49-17.60L247.49-17.60L247.49-17.60Q244.16-17.60 241.09-18.82L241.09-18.82L241.09-18.82Q240.45-19.07 240.38-19.14L240.38-19.14L236.74 0L222.78 0L230.91-42.24L259.46-42.24L259.46-42.24Q259.46-38.34 257.63-36.13L257.63-36.13L257.63-36.13Q255.81-33.92 252.61-33.92ZM260.19-1.92L260.19-1.92L260.19-1.92Q258.69-3.58 258.02-6.21L258.02-6.21L258.02-6.21Q257.34-8.83 257.34-13.12L257.34-13.12L257.34-13.12Q257.34-17.41 258.82-21.31L258.82-21.31L258.82-21.31Q260.29-25.22 262.98-28.03L262.98-28.03L262.98-28.03Q268.48-33.92 277.57-33.92L277.57-33.92L277.57-33.92Q280.83-33.92 283.20-32.83L283.20-32.83L294.14-33.92L289.41-8.96L289.41-8.96Q289.22-8.19 289.22-6.78L289.22-6.78L289.22-6.78Q289.22-5.38 290.08-4.48L290.08-4.48L290.08-4.48Q290.94-3.58 292.22-3.46L292.22-3.46L292.22-3.46Q291.58-1.28 289.25 0L289.25 0L289.25 0Q286.91 1.28 284.29 1.28L284.29 1.28L284.29 1.28Q281.66 1.28 279.90 0.29L279.90 0.29L279.90 0.29Q278.14-0.70 277.63-2.37L277.63-2.37L277.63-2.37Q276.61-0.77 274.43 0.26L274.43 0.26L274.43 0.26Q272.26 1.28 269.34 1.28L269.34 1.28L269.34 1.28Q266.43 1.28 264.06 0.51L264.06 0.51L264.06 0.51Q261.70-0.26 260.19-1.92ZM273.70-27.90L273.70-27.90L273.70-27.90Q272.96-26.75 272.32-24.80L272.32-24.80L272.32-24.80Q271.68-22.85 270.62-17.63L270.62-17.63L270.62-17.63Q269.57-12.42 269.57-8.70L269.57-8.70L269.57-8.70Q269.57-4.99 270.14-3.90L270.14-3.90L270.14-3.90Q270.72-2.82 271.74-2.82L271.74-2.82L271.74-2.82Q273.79-2.82 275.30-4.77L275.30-4.77L275.30-4.77Q276.80-6.72 277.38-10.18L277.38-10.18L280.77-28.93L280.77-28.93Q279.42-30.08 277.86-30.08L277.86-30.08L277.86-30.08Q276.29-30.08 275.36-29.57L275.36-29.57L275.36-29.57Q274.43-29.06 273.70-27.90ZM328.77-26.62L328.77-26.62L328.77-26.62Q328.77-23.94 326.53-22.27L326.53-22.27L326.53-22.27Q324.29-20.61 320.64-20.61L320.64-20.61L320.64-20.61Q319.10-20.61 318.21-21.06L318.21-21.06L318.21-21.06Q318.91-22.72 319.14-24.80L319.14-24.80L319.14-24.80Q319.36-26.88 319.36-27.46L319.36-27.46L319.36-27.46Q319.36-30.14 317.50-30.14L317.50-30.14L317.50-30.14Q316.22-30.14 314.78-28.54L314.78-28.54L314.78-28.54Q313.34-26.94 312.13-24.45L312.13-24.45L312.13-24.45Q309.44-18.69 309.44-12.86L309.44-12.86L309.44-12.86Q309.44-9.66 310.66-8.22L310.66-8.22L310.66-8.22Q311.87-6.78 314.56-6.78L314.56-6.78L314.56-6.78Q318.27-6.78 321.22-9.86L321.22-9.86L321.22-9.86Q322.05-10.82 322.50-11.90L322.50-11.90L322.50-11.90Q324.93-10.62 324.93-7.10L324.93-7.10L324.93-7.10Q324.93-3.52 320.96-1.15L320.96-1.15L320.96-1.15Q316.86 1.28 310.34 1.28L310.34 1.28L310.34 1.28Q297.34 1.28 297.34-12.48L297.34-12.48L297.34-12.48Q297.34-22.53 303.04-28.29L303.04-28.29L303.04-28.29Q308.54-33.92 318.66-33.92L318.66-33.92L318.66-33.92Q328.77-33.92 328.77-26.62ZM356.42-10.82L356.42-10.82L356.42-10.82Q358.02-9.73 358.02-7.33L358.02-7.33L358.02-7.33Q358.02-4.93 356.80-3.39L356.80-3.39L356.80-3.39Q355.58-1.86 353.60-0.83L353.60-0.83L353.60-0.83Q349.50 1.28 345.09 1.28L345.09 1.28L345.09 1.28Q340.67 1.28 338.08 0.32L338.08 0.32L338.08 0.32Q335.49-0.64 333.76-2.43L333.76-2.43L333.76-2.43Q330.37-5.82 330.37-12.03L330.37-12.03L330.37-12.03Q330.37-21.70 335.62-27.58L335.62-27.58L335.62-27.58Q341.25-33.92 351.04-33.92L351.04-33.92L351.04-33.92Q357.12-33.92 360.13-31.36L360.13-31.36L360.13-31.36Q362.37-29.44 362.37-26.30L362.37-26.30L362.37-26.30Q362.37-15.04 342.91-15.04L342.91-15.04L342.91-15.04Q342.66-13.38 342.66-11.97L342.66-11.97L342.66-11.97Q342.66-9.02 343.97-7.90L343.97-7.90L343.97-7.90Q345.28-6.78 347.71-6.78L347.71-6.78L347.71-6.78Q350.14-6.78 352.74-7.90L352.74-7.90L352.74-7.90Q355.33-9.02 356.42-10.82ZM343.36-17.79L343.36-17.79L343.36-17.79Q347.90-17.79 350.53-20.61L350.53-20.61L350.53-20.61Q353.15-23.30 353.15-27.58L353.15-27.58L353.15-27.58Q353.15-29.06 352.61-29.86L352.61-29.86L352.61-29.86Q352.06-30.66 350.98-30.66L350.98-30.66L350.98-30.66Q349.89-30.66 348.96-30.24L348.96-30.24L348.96-30.24Q348.03-29.82 347.07-28.42L347.07-28.42L347.07-28.42Q344.70-25.22 343.36-17.79ZM383.68-22.46L383.68-22.46L383.68-22.46Q384.58-24.83 384.58-26.88L384.58-26.88L384.58-26.88Q384.58-30.66 381.50-30.66L381.50-30.66L381.50-30.66Q379.90-30.66 378.59-29.22L378.59-29.22L378.59-29.22Q377.28-27.78 377.28-25.98L377.28-25.98L377.28-25.98Q377.28-24.70 378.30-23.68L378.30-23.68L378.30-23.68Q379.78-22.27 383.55-19.97L383.55-19.97L383.55-19.97Q387.33-17.66 388.77-15.78L388.77-15.78L388.77-15.78Q390.21-13.89 390.21-11.30L390.21-11.30L390.21-11.30Q390.21-8.70 388.96-6.34L388.96-6.34L388.96-6.34Q387.71-3.97 385.47-2.30L385.47-2.30L385.47-2.30Q380.67 1.28 372.99 1.28L372.99 1.28L372.99 1.28Q368.83 1.28 365.63-0.90L365.63-0.90L365.63-0.90Q362.43-3.01 362.43-5.50L362.43-5.50L362.43-5.50Q362.43-8 364.26-9.47L364.26-9.47L364.26-9.47Q366.08-10.94 368.77-10.94L368.77-10.94L368.77-10.94Q371.46-10.94 373.12-9.92L373.12-9.92L373.12-9.92Q372.29-7.81 372.29-6.40L372.29-6.40L372.29-6.40Q372.29-2.18 375.87-2.18L375.87-2.18L375.87-2.18Q377.41-2.18 378.43-3.14L378.43-3.14L378.43-3.14Q379.46-4.10 379.46-5.76L379.46-5.76L379.46-5.76Q379.46-9.02 373.95-12.48L373.95-12.48L373.95-12.48Q369.47-15.42 368.45-16.58L368.45-16.58L368.45-16.58Q366.72-18.62 366.72-21.18L366.72-21.18L366.72-21.18Q366.72-23.74 367.94-26.18L367.94-26.18L367.94-26.18Q369.15-28.61 371.39-30.34L371.39-30.34L371.39-30.34Q376.06-33.92 384.19-33.92L384.19-33.92L384.19-33.92Q388.35-33.92 390.82-32.26L390.82-32.26L390.82-32.26Q393.28-30.59 393.28-27.78L393.28-27.78L393.28-27.78Q393.28-24.96 391.58-23.36L391.58-23.36L391.58-23.36Q389.89-21.76 386.82-21.76L386.82-21.76L386.82-21.76Q384.70-21.76 383.68-22.46Z" fill="url(#editing-sticker-gradient)" stroke="#000000" stroke-width="2.5"></path></g></g><style>text {
  font-size: 64px;
  font-family: Arial Black;
  dominant-baseline: central;
  text-anchor: middle;
}</style></svg>